<?xml version="1.0" encoding="UTF-8"?>
<svg width="1247px" height="663px" viewBox="0 0 1247 663" version="1.1" xmlns="http://www.w3.org/2000/svg" xmlns:xlink="http://www.w3.org/1999/xlink">
    <!-- Generator: Sketch 43.1 (39012) - http://www.bohemiancoding.com/sketch -->
    <title>Desktop HD Copy 2</title>
    <desc>Created with Sketch.</desc>
    <defs></defs>
    <g id="Этикетки" stroke="none" stroke-width="1" fill="none" fill-rule="evenodd">
        <g id="Desktop-HD-Copy-2">
            <g id="Ресурс-3" transform="translate(154.000000, 93.000000)" fill-rule="nonzero">
                <path d="M0,321 L0,319 C3.8,317.52 7.51,316 7.12,310.8 C7.12,310.11 8.12,308.96 8.89,308.64 C11.52,307.54 14.27,306.72 17.14,305.74 C15.86,301.5 6.62,305.74 8.33,298.07 L5.33,297.89 L22.78,276.56 C26.13,272.47 26.3,268.56 22.43,264.61 C19.77,261.89 18.13,258.87 19.8,254.74 C20.28,253.54 19.29,251.74 18.9,250.21 C17.9,246.33 15.14,241.9 16.18,238.7 C18.62,231.22 15.53,225.09 13.96,218.42 C13.3718428,215.77843 13.5664469,213.022697 14.52,210.49 C17.1,204.2 16.88,200.59 12.52,195.7 C7.36,189.89 7.58,185.43 13.06,179.75 C14.88,177.87 16.13,175.43 18.06,173.68 C19.7377158,172.297306 21.6246028,171.190152 23.65,170.4 C25.4769445,169.700699 27.3435137,169.109674 29.24,168.63 L29.09,167.37 L35.03,170.37 L34.65,171.85 L29.07,171.15 C29.25,172 29.18,173.15 29.57,173.37 C34.57,175.67 38.57,180.45 45.03,179.21 C49.71,178.31 53.13,180.63 56.38,183.96 C61.54,189.27 66.5,194.73 74.26,196.96 C79.73,198.53 84.72,210.04 83.26,215.1 C81.16,222.55 72.01,227.86 64.48,225.98 C58.67,224.54 52.84,223.12 47.06,221.56 C45.6886832,221.12125 44.385915,220.491747 43.19,219.69 C39.03,217.18 34.93,214.57 30.75,212.1 C30.49,211.94 29.75,212.61 27.29,213.96 C32.76,218.71 37.47,222.91 42.29,226.96 C45.82,229.96 45.61,233.36 43.96,237.2 C43.5859158,238.327346 43.5408217,239.537948 43.83,240.69 C44.49,243.92 45.34,247.11 46.17,250.57 C52.65,251.07 56.05,262.38 65.44,257.57 C64.73,255.03 64.15,252.99 63.58,250.95 L62.16,252.11 C60.16,250.11 57.67,248.41 56.31,246.05 C55.61,244.84 56.9,242.48 57.52,239.56 L65.87,245.91 L80.71,249.59 C78.9,245.71 77.06,242.66 76.08,239.36 C75.52,237.47 75.54,234.36 76.71,233.2 C80.87,229.07 85.63,225.55 90.8,221.27 L99.57,228.09 C99.99,225.59 100.18,223.27 100.79,221.09 C101.85,217.2 103.31,213.46 99.4,210.09 C98.71,209.49 98.8,207.59 99.01,206.37 C100.07,200.13 101.92,193.83 95.56,188.28 C111.56,190.87 113.02,191.9 114.2,200.88 C102.3,205.94 102.35,206.49 116.83,219.03 C118.45,215.86 119.77,212.88 121.45,210.11 C123.02,207.53 124.55,204.66 126.84,202.85 C131.463811,199.295629 136.325138,196.061427 141.39,193.17 C143.57,191.88 146.31,191.54 149.39,190.57 C149.3,189.15 148.74,185.8 152.55,188.12 L156.39,184.18 C156.8,185.88 157.54,187.57 157.54,189.27 C157.54,192.7 158.62,195.03 162.25,195.72 C164.77,193.45 165.37,188.63 170.44,189.85 C175.51,191.07 179.82,189.35 183.21,185.29 C184.1,184.22 185.42,183.51 187.72,181.72 C188.31,185.06 188.64,187.41 189.16,189.72 C189.501128,190.839437 189.939463,191.92691 190.47,192.97 C191.404005,192.13376 192.251598,191.205763 193,190.2 C193.68,189.04 193.68,186.94 194.56,186.54 C200.46,183.83 199.4,179.99 196.98,175.54 C195.19,172.22 197.98,168.07 201.64,169.04 C208.02,170.73 214.64,172.39 220.32,175.62 C228.7,180.41 237.19,185.52 242.01,195.62 L246.27,186.37 C244.22,182.51 242.92,179.74 241.32,177.15 C240.42,175.7 239.13,173.61 237.83,173.46 C232.77,172.85 233.7,169.39 234.22,166.46 C234.97,162.24 236.22,158.12 237.31,153.94 L232.51,151.74 C233.06,150.62 234.25,149.24 233.94,148.64 C231.2,143.39 235.49,141.04 238.27,138.45 C241.583733,135.410162 243.680419,131.270096 244.17,126.8 C244.71,122.87 246.04,119.06 246.97,115.19 C247.65,112.38 249.17,111.46 252.06,112.28 C255.901436,113.388825 259.804866,114.270353 263.75,114.92 C266.45,115.35 266.98,116.72 267.48,119.18 C268.73,125.25 265.62,130.18 264.04,135.5 C263.51,137.33 263.73,140.19 264.85,141.57 C269.28,147.01 268.22,153 267.79,159.16 C267.25,166.81 267.19,174.5 267.07,182.16 C267.07,182.96 268,183.9 268.7,184.58 C272.01,187.8 273.39,191.22 270.81,195.68 C270.06,196.98 270.32,198.9 270.2,200.55 C269.92,204.36 264.78,211.2 261.75,211.74 L262.98,214.93 L252.44,218.38 C253.07,224.12 254.66,224.95 263.2,224.73 C266.4,221.52 268.75,219.29 270.94,216.91 C272.014057,215.685388 272.946614,214.343579 273.72,212.91 C274.77,211.05 275.25,208.7 276.67,207.23 C280.48,203.3 280.67,199.36 278.42,194.53 C276.3,190.06 278.07,186.92 282.8,185.47 C285.31,184.7 287.85,184.01 290.14,183.36 C294.06,188.98 296.5,194.5 295.14,201.42 C294.44,204.94 297.53,206.14 302.03,204.56 C295.32,201.44 295.2,201.01 299.17,194.74 C299.43,194.33 299.89,193.74 299.77,193.44 C298.46,190.27 297.83,186.23 295.48,184.24 C292.48,181.71 289.48,177.56 283.75,180.46 C281.69,181.51 275.67,179.71 275.31,178.26 C274.15,173.52 273.61,168.01 274.95,163.41 C276.89,156.73 277.32,150.88 273.18,145.07 C272.51,144.13 272.27,142.91 271.65,141.93 C268.95,137.72 270.74,134.37 273.7,131.32 C274.835007,130.093333 276.12602,129.020851 277.54,128.13 C281.13,126.03 281.76,123.01 280.96,119.22 C280.68716,117.30909 280.560126,115.380188 280.58,113.45 L282.44,113.14 C283.13,115.86 284.27,118.54 284.44,121.29 C284.79,127.05 282.29,132.83 284.44,138.66 C284.67,139.27 283.77,140.3 283.19,141.59 L301.7,149 L299.24,142.31 L298.24,143.52 C295.33,141.57 292.09,139.95 289.67,137.52 C288.36,136.2 288.47,133.52 287.94,131.39 L289.51,130.95 L293.05,135.68 C295.2,133.89 297.17,132.27 299.21,130.59 L295.85,127.47 C303.39,122.42 306.56,122.01 312.85,127.01 C317.92,131.01 321.78,136.78 329.37,136.06 C329.55,136.06 329.78,136.49 330.26,137.06 C329.62,138.56 329.37,140.99 328.13,141.7 C323.98,144.1 324.71,147.7 324.92,151.3 C325.081188,152.964629 325.050991,154.64225 324.83,156.3 C324.16,160.13 325.17,162.79 328.83,163.6 C332.08,159.99 333.61,156.34 332.31,151.27 C331.25,147.15 332.15,142.55 332.08,138.16 C332.08,136.53 332.38,134.32 331.48,133.36 C328.07,129.73 324.6,125.9 320.48,123.29 C316.91,121.05 315.71,118.72 316.14,114.8 C316.352678,113.114791 316.023454,111.405626 315.2,109.92 C311.77,104.65 314.26,98.32 320.44,97.22 C328.96,95.7 337.52,94.31 346,92.58 C347.653948,92.0554801 349.070197,90.9649678 350,89.5 C353.09,84.84 348.4,83.74 345.87,81.6 L348.87,78.12 L344.77,73 L346,71.88 L350.5,74.66 C351.97,71.5 353.35,68.57 354.69,65.66 C356.2,64.76 358.69,64.09 359.78,62.47 C363.19,57.47 367.88,54.89 373.49,53.27 C377.96,51.98 382.32,50.27 386.68,48.64 C388.033804,47.9804172 389.325656,47.2006203 390.54,46.31 L386.54,43.99 L386.7,42.9 L405.1,40.37 C404.69,42.92 404.46,44.31 404.32,45.19 C405.63,45.19 407.32,44.66 408.08,45.28 C411.18,47.88 413.15,45.69 414.94,43.8 C416.706927,41.7303558 418.34342,39.5528189 419.84,37.28 L427.36,43.83 C426.87,40.56 427.01,38.65 426.26,37.2 C425.41,35.58 423.76,34.39 421.97,32.49 C425.85,31.87 428.76,31.31 431.7,30.96 C435.61,30.49 436.2,28.54 434.84,25.16 C434.297231,23.845951 434.265131,22.3764974 434.75,21.04 C438.67,12.93 442.46,4.61 451,0 L454,0 C455.83,1.06 457.63,2.19 459.5,3.18 C464.19,5.66 464.91,9.29 461.25,12.9 C459.79,14.33 458.08,15.51 456.48,16.81 L457.48,17.98 L460.11,16.58 C463.11,17.58 465.04,18.51 467.11,18.85 C472.11,19.69 473,21.27 470.23,25.73 C468.82,28 467.09,30.07 465.5,32.24 L466.43,33.57 C468.67,32.63 472.07,32.28 472.92,30.62 C475.36,25.89 478.71,24.86 483.48,25.72 C485.804716,25.9696245 488.142035,26.0831514 490.48,26.06 C495.01,26.34 502.02,33.68 502.64,38.36 C502.76,39.29 504.31,40.03 505.2,40.87 L506.58,40.03 C506.31,44.45 513.19,48.16 507.25,53.28 L503.64,50.28 L502.88,51.17 L508.78,56.31 C508.78,57.64 509.67,60.5 508.63,61.76 C504.27,67 499.41,71.83 494.57,76.66 C492.18,79.04 489.13,80.81 486.95,83.35 C484.321976,86.5820933 481.92281,89.993721 479.77,93.56 C478,96.32 476.3,98.78 472.35,98.02 C471.54,97.86 470.15,98.77 469.59,99.57 C466.96,103.36 464.51,107.28 462,111.15 L463.27,112.15 L467.5,107 C476.5,109 482.69,101.27 490.56,97.9 C491.23,97.62 491.28,95.9 491.62,94.8 L490.41,94.41 L485.85,97.22 L484.44,96.52 L487.22,88.73 C490.65,91.67 494.15,91.22 496.82,93.9 C498.92,96.01 503.4,97.84 505.47,91.75 C506.13,96.37 506.79,100.99 507.47,105.83 L512.27,103.83 L509.27,100.41 C519.27,93.05 528.8,97.81 536.99,99.74 C537.79,102.89 537.7,106.3 538.99,106.9 C547.11,110.78 555.67,112.72 564.46,109.07 C565.39,108.68 566.28,106.24 565.95,105.07 C564.46,100.07 564.64,95.92 569.81,93.46 C576.64,95.3 581.53,102.9 589.81,99.64 C589.94,99.59 590.13,99.72 590.29,99.76 C596.98,101.14 602.14,108.61 601.22,115.43 C600.912791,116.714418 600.975193,118.059541 601.4,119.31 C603.48,123.31 602.27,126.38 599.63,129.7 C598.5,131.12 598.24,134.03 598.84,135.84 C599.84,138.71 601.71,141.29 603.38,143.89 C604.275425,145.399795 605.414084,146.751318 606.75,147.89 C608.81,149.47 611.16,150.68 613.97,152.4 C616.13,145.23 618.31,138.03 620.77,129.91 C624.77,135.29 625.16,142.63 633.14,141.32 C635.57,135.64 636.14,135.47 641.7,138.96 C644.24,140.55 646.63,142.47 649.35,143.65 C651.009512,144.231881 652.831674,144.134843 654.42,143.38 C657.385743,141.649334 660.247332,139.74606 662.99,137.68 C662.04,132.88 662.39,127.93 666.65,123.43 C668.76,121.21 669.55,117.75 670.94,114.84 C671.29,113.84 672.73,113.84 674.1,114.18 C688.19,117.56 702.23,121.11 716.36,124.33 C720.48,125.26 722.44,127.33 722.43,130.81 L717.67,134.32 C721.14,136.5 723.94,138.32 726.78,140 C727.37953,140.231772 727.998691,140.409154 728.63,140.53 C731.29,141.53 733.94,142.53 736.87,143.53 L733.53,149.69 C736.08,150.25 738.34,151.54 739.94,150.97 C749.54,147.56 759.37,148.77 769.15,148.91 C773.046366,148.956706 776.692159,150.839547 778.985811,153.989628 C781.279464,157.139709 781.95192,161.18751 780.8,164.91 C780.46,166.15 780.24,167.42 779.99,168.57 L790.4,174.66 C791.4,173.87 792.64,172.21 794.08,171.96 C798.45,171.24 803.43,169.61 807.23,170.96 C814.36,173.51 820.8,176.57 828.38,168.69 C828.83,177.5 832.99,182.69 839.63,185.89 C846.82,181.03 847.91,178.22 843.31,173.25 C840.56,170.25 844.12,168.25 843.2,165.81 C844.876073,165.511449 846.578163,165.384127 848.28,165.43 C854.67,166.24 861.02,167.92 867.4,168.01 C873.4,168.1 878.84,168.81 883.86,172.31 C890.65,177.04 897.6,181.54 904.44,186.2 C905.07,186.62 905.3,187.6 905.9,188.12 C908.58,190.45 911.33,192.69 914.03,195 C915.140508,195.866128 916.177384,196.82273 917.13,197.86 C919.41,200.54 921.57,203.32 924.56,207.02 C924.41,204.72 924.35,203.88 924.26,202.5 C932.08,205.87 926.15,216.15 932.51,219 C933.81,216.52 934.93,214.4 936.05,212.28 L938.85,214.42 C943.29,214.08 947.71,213.42 950.85,218.33 C952.99,221.61 955.71,224.52 957.85,227.25 L953.16,232.87 L949.87,231.23 C950.15,233.06 950.32,234.23 950.55,235.76 C942.97,234.15 946.08,242.97 941.55,244.47 C941.19,244.59 941.21,245.88 941.08,246.63 C941.08,246.79 941.08,247.03 941.13,247.12 C944.13,249.92 940.39,250.65 939.75,252.59 C935.98,250.13 932.75,246.79 928.91,245.87 C924.85,244.87 922.99,243.16 923.03,239.5 C923.03,235.17 920.87,233.94 917.13,234.16 C914.13,234.34 911.2,234.6 907.21,234.9 C906.96,231.31 906.72,228.05 906.5,224.9 C906.75,224.83 905.9,225.05 905.07,225.31 C903.48,225.79 901.55,225.91 900.45,226.93 C899.8,227.53 899.94,230.07 900.67,230.87 C904.08,234.55 902.29,237.6 899.67,240.35 C897.05,243.1 893.87,245.72 891.67,247.75 L884.52,245.91 L883.52,247.08 C884.36,248.69 885,251.52 886.08,251.7 C889.86,252.32 890.18,255.45 891.31,257.84 C892.63,260.65 894.15,263.72 894.17,266.68 C894.17,270.16 897.73,274.37 892.83,277.26 C885.1,274.26 885.07,274.18 878.07,277.09 C869.42,280.67 862.13,286.45 854.71,291.99 C852.65,293.53 851.02,295.65 849.13,297.45 C846.43,300.01 843.67,302.52 841.54,304.45 C837.93,302.75 833.73,299.18 829.63,299.3 C825.53,299.42 821.72,303.3 818.13,305.3 C818.08,304.71 817.93,302.86 817.77,301.02 L815.77,299.56 L808.53,305.66 C805.72,305.32 802.67,306.79 801.2,311.66 C800.52,313.91 799.03,315.91 798.08,318.1 C796.26,322.3 792.21,325.85 793.58,330.96 L798.95,330.69 C798.952709,332.316362 798.785128,333.938538 798.45,335.53 C797.45,338.6 796.45,341.27 799.45,344.16 C800.52,345.22 799.83,348.07 799.95,350.1 L798.05,350.15 C797.79,348.73 797.54,347.31 797.17,345.2 C794.01,350.2 789.44,353.84 792.36,360.26 C794,363.86 792.97,366.04 788.52,365.88 C787.260782,366.004406 786.05511,366.452227 785.02,367.18 C780.45,369.74 780.8,374.18 781.02,378.5 C776.71,379.91 772.22,380.68 772.12,386.42 C772.02,392.81 767.25,396.03 762.68,400.34 C760.68,390 758.26,380.45 757.2,370.74 C756.3,362.57 756.89,354.23 757.1,345.96 C757.1,344.55 758.5,343.14 759.34,341.79 C761.29,338.66 763.34,335.56 765.54,332.06 C768.11,329.95 771.83,327.73 774.46,324.6 C782.89,314.6 789.24,302.6 801.66,296.35 C802.34,296.01 802.3,294.35 802.78,293.45 C805.64,287.83 803.37,279.94 810.61,276.38 C808.4,272.67 805.34,273.58 803.18,275.26 C799.55,278.08 798.18,282.05 799.91,286.17 C791.67,286.44 789.5,295.04 784.12,297.55 C779.12,293.64 781.96,288.97 783.24,285.15 C781.647366,285.09483 780.058611,284.957984 778.48,284.74 C777.07,284.46 775.58,283.29 774.37,283.56 C769.37,284.69 764.52,285.56 761.63,291 C759.54,295 755.43,297.84 752.75,301.57 C750.726344,304.473485 749.177018,307.680151 748.16,311.07 C747.96,311.72 750.97,313.36 752.46,314.6 C752.62,314.73 752.46,315.2 752.53,315.51 L730.18,318.97 L729.85,317.37 L735.85,313.73 L718,310.19 L715.63,314.57 L697.75,314.57 C693.49,311.57 681.14,313.05 675.75,318.97 C671.4,323.72 667.75,329.06 663.37,333.81 C654.54,343.47 645.46,352.91 636.5,362.46 C636.34,362.64 636.5,363.09 636.5,364.27 L644.89,365.81 C645.07,368.08 645.24,370.43 645.52,374.08 L648.66,368.83 C649.11,371.26 649.45,373.12 649.81,375.08 L656,374 C656.27,372.12 656.53,370.35 656.84,368.13 C658.98,368.38 662.22,368.03 662.59,368.9 C664.88,374.25 672.92,375.71 671.48,383.97 C670.74,388.16 671.03,392.43 668.98,396.5 C667.694372,398.830181 667.081574,401.471788 667.21,404.13 C668.38,413.76 667.56,422.58 660.13,429.84 C658.39,431.53 657.48,434.06 656.04,436.09 C649.22,445.7 642.45,455.34 635.44,464.81 C633.773839,466.899997 631.710966,468.640016 629.37,469.93 C626.08,471.84 622.49,472.38 619.22,469.64 C618.265813,468.785462 617.361017,467.877328 616.51,466.92 L609,474.06 C609,471.86 608.73,470.95 609,470.64 C613.11,466.64 613.3,462.1 611.7,456.9 C610.83,454.06 615.52,450.43 618.53,451.67 C622.05,453.11 623.81,451.95 624.97,448.72 C626.76,443.72 628.67,438.72 630.45,433.72 C631.56,430.6 632.51,427.43 633.53,424.29 L632.06,423.6 C627.63,425.45 623.25,427.43 618.76,429.13 C613.97,430.94 610.11,429.66 610.08,425.89 C610.03,417.42 603.79,415.89 597.79,413.89 C596.22,413.37 594.41,413.5 592.93,412.84 C591.677493,412.292386 590.677614,411.292507 590.13,410.04 C587.97,403.04 586.33,395.95 583.93,389.04 C582.93,386.23 580.99,382.54 578.6,381.67 C571.52,379.1 564.6,375.59 556.25,378.07 C551.66,379.44 548.64,381.39 546.45,385.39 C550.56,386.93 551.18,388.89 549.34,391.81 C546.695698,395.719828 544.441557,399.879772 542.61,404.23 C540.01,411.07 535.49,412.97 528.61,411.23 C521.12,409.33 513.83,406.02 505.61,412.09 C497.91,417.77 488,417.74 478.96,413.46 C473.73,410.98 468.84,407.78 463.79,404.9 C460.804975,402.987498 456.995626,402.925557 453.95,404.74 C447.52,408.11 442.47,405.46 440.52,398.51 C440.096518,396.838481 439.070983,395.38208 437.64,394.42 C433.883635,392.62913 430.015594,391.082582 426.06,389.79 C422.84,388.67 416.22,394.54 416.42,397.95 C416.62,401.36 416.47,404.95 416.47,408.89 L400.6,408.89 C399.627603,408.917071 398.668427,408.6599 397.84,408.15 C390.49,402.6 382.27,402.21 374.5,405.94 C368.2,408.94 362.81,413.86 356.98,417.86 C356.020085,418.474069 355.017534,419.018788 353.98,419.49 C352.98,416.44 352.23,414.08 351.86,412.94 C347.86,412.46 345.04,412.65 342.73,411.67 C340.841486,410.651363 339.353918,409.022793 338.51,407.05 C335.51,400.49 331.17,398.77 324.57,402 C319.95,404.26 319.09,398.36 315.9,397.11 L312.45,401.35 L310,397.33 C304.58,388.49 301.56,378.01 292.36,371.69 C291.67,371.22 292.27,368.86 292.27,366.38 C289.07,368.38 286.22,370.43 283.11,371.96 C280,373.49 276.5,374.56 273.17,375.82 L272.47,374.72 C273.04,373.55 273.6,372.38 273.89,371.8 L264.89,368.38 L260.46,369.03 L258.21,359 C255.07,358.3 253.07,357.4 251.13,357.52 C248.334687,357.788538 245.579756,358.37912 242.92,359.28 C241.79,359.63 241.03,361.14 239.92,361.53 C234.08,363.53 228.24,365.61 222.28,367.19 C215.28,369.04 208.18,370.39 200.77,372.03 C200.09,375.63 202.38,378.19 206.45,379.97 C204.61,380.6 202.95,380.43 201.45,380.89 C200.366856,381.395916 199.412836,382.141351 198.66,383.07 C202.14,388.12 196.54,388.45 194.18,391.14 L203.4,397.08 C202.12,402.25 201.11,402.93 196.09,402.08 C195.31,401.94 194.09,401.97 193.69,402.44 C191.07,405.73 187.95,403.04 186.99,401.81 C184.86,399.09 183.38,398.28 179.99,399.74 C177.69,400.74 173.83,399.29 172.31,400.74 C168.55,404.25 166.05,402.74 163.31,399.65 L162.31,402.65 C160.19,400.08 158.68,397.19 156.31,395.65 C153.94,394.11 150.67,393.91 148.39,393.29 C138.79,392.47 132.89,398.23 127.69,403.43 C127.45,406.2 127.28,408.27 127.11,410.34 L125.63,410.34 L120.02,404.15 C118.14,410.75 116.51,416.45 114.96,421.93 C116.81,424.19 118.37,427.81 120.16,427.93 C125.96,428.32 127.09,432.28 128.59,436.61 L124.76,438.61 L128.39,440.37 L123.64,444.79 L121.43,441.79 L115.43,455.85 C117.126464,458.59545 118.668848,461.433169 120.05,464.35 C121.31,467.35 121.44,470.86 123.05,473.6 C124.86,476.75 125.05,479.29 122.93,482.1 L118.93,482.1 C114.75,478.22 111.12,472.52 106.21,471 C101.67,469.6 96.55,469.8 92.4,466.62 C92.06,466.37 91.4,466.52 90.93,466.45 C82.24,465.1 73.18,464.89 66.53,457.7 C65.35,456.43 63.34,455.97 61.85,454.94 C59.96,453.64 58.22,452.16 56.85,451.12 L66.15,442.73 L63,439.06 L71.36,434.8 L71.19,433.99 L66,433.99 C66.29,427.62 70.66,427.81 75.06,427.89 C75.38,424.17 74.79,420.31 76.19,417.41 C78.28,413.1 76.47,411.61 73.09,410.41 C69.09,408.94 64.27,409.16 61.38,405.08 C61.13,404.73 60.11,404.69 59.55,404.85 C55.71,405.93 50.37,406.05 49.98,402.28 C49.4,396.8 43.98,398.14 42.66,394.73 C42.510438,394.122402 42.510438,393.487598 42.66,392.88 C43.34,388.88 41.23,386.88 37.66,386.94 C34.72,386.94 31.79,387.94 28.43,388.63 L26,378.88 L35.49,376.51 C33.23,374.38 32.37,373.1 31.17,372.51 C26.89,370.44 23.53,364.89 23.6,360.08 C23.6,356.77 23.52,352.91 19.38,352.26 C16.99,351.89 14.79,350.88 12.78,350.54 C4.91,349.18 6.66,342.37 4.72,337.91 C2.39,332.57 4.53,325.85 0,321 Z" id="Shape" fill="#000000"></path>
                <path d="M123,482 C125.12,479.19 124.93,476.65 123.12,473.5 C121.54,470.76 121.41,467.23 120.12,464.25 C118.738848,461.333169 117.196464,458.49545 115.5,455.75 L121.5,441.69 L123.71,444.69 L128.46,440.27 L124.83,438.51 L128.66,436.51 C127.16,432.18 126.03,428.22 120.23,427.83 C118.44,427.71 116.88,424.09 115.03,421.83 C116.58,416.35 118.21,410.65 120.09,404.05 L125.7,410.24 L127.18,410.24 C127.35,408.17 127.52,406.1 127.76,403.33 C132.96,398.13 138.86,392.33 148.46,393.19 C150.74,393.81 153.99,394.01 156.38,395.55 C158.77,397.09 160.27,399.98 162.38,402.55 L163.38,399.55 C166.08,402.62 168.58,404.15 172.38,400.64 C173.9,399.23 177.76,400.64 180.06,399.64 C183.41,398.18 184.89,398.99 187.06,401.71 C188.06,402.94 191.14,405.63 193.76,402.34 C194.13,401.87 195.38,401.84 196.16,401.98 C201.16,402.86 202.16,402.18 203.47,396.98 L194.25,391.04 C196.61,388.35 202.25,388.04 198.73,382.97 C199.482836,382.041351 200.436856,381.295916 201.52,380.79 C202.98,380.33 204.64,380.5 206.52,379.87 C202.45,378.09 200.16,375.53 200.84,371.93 C208.25,370.29 215.37,368.93 222.35,367.09 C228.35,365.51 234.15,363.44 239.99,361.43 C241.11,361.04 241.87,359.53 242.99,359.18 C245.649756,358.27912 248.404687,357.688538 251.2,357.42 C253.14,357.3 255.14,358.2 258.28,358.9 L260.48,368.98 L264.91,368.33 L273.91,371.75 C273.62,372.33 273.06,373.5 272.49,374.67 L273.19,375.77 C276.52,374.51 279.95,373.48 283.13,371.91 C286.31,370.34 289.13,368.31 292.29,366.33 C292.29,368.81 291.69,371.17 292.38,371.64 C301.58,377.96 304.6,388.44 310.02,397.28 L312.5,401.35 L315.95,397.11 C319.14,398.36 320,404.26 324.62,402 C331.22,398.77 335.55,400.49 338.56,407.05 C339.403918,409.022793 340.891486,410.651363 342.78,411.67 C345.09,412.67 347.91,412.46 351.91,412.94 C352.28,414.08 353.05,416.44 354.03,419.49 C355.067534,419.018788 356.070085,418.474069 357.03,417.86 C362.86,413.86 368.25,408.97 374.55,405.94 C382.32,402.21 390.55,402.6 397.89,408.15 C398.718427,408.6599 399.677603,408.917071 400.65,408.89 C405.8,408.96 410.94,408.89 416.52,408.89 C416.52,404.99 416.68,401.46 416.47,397.95 C416.26,394.44 422.89,388.67 426.11,389.79 C430.065594,391.082582 433.933635,392.62913 437.69,394.42 C439.120983,395.38208 440.146518,396.838481 440.57,398.51 C442.52,405.46 447.57,408.11 454,404.74 C457.045626,402.925557 460.854975,402.987498 463.84,404.9 C468.89,407.78 473.78,410.98 479.01,413.46 C488.01,417.74 497.96,417.77 505.66,412.09 C513.9,406.02 521.19,409.33 528.66,411.23 C535.5,412.97 540.02,411.07 542.66,404.23 C544.491557,399.879772 546.745698,395.719828 549.39,391.81 C551.23,388.89 550.61,386.93 546.5,385.39 C548.69,381.39 551.71,379.39 556.3,378.07 C564.62,375.59 571.57,379.07 578.65,381.67 C581.04,382.54 583,386.23 583.98,389.04 C586.38,395.91 587.98,403.04 590.18,410.04 C590.727614,411.292507 591.727493,412.292386 592.98,412.84 C594.46,413.5 596.27,413.37 597.84,413.89 C603.84,415.89 610.08,417.41 610.13,425.89 C610.13,429.66 614.02,430.94 618.81,429.13 C623.3,427.43 627.68,425.45 632.11,423.6 L633.58,424.29 C632.58,427.43 631.58,430.6 630.5,433.72 C628.72,438.72 626.81,443.72 625.02,448.72 C623.86,451.95 622.1,453.11 618.58,451.67 C615.58,450.43 610.88,454.06 611.75,456.9 C613.35,462.1 613.16,466.66 609.05,470.64 C608.73,470.95 609.05,471.86 609.05,474.06 L616.6,466.89 C617.451017,467.847328 618.355813,468.755462 619.31,469.61 C622.58,472.35 626.17,471.81 629.46,469.9 C631.800966,468.610016 633.863839,466.869997 635.53,464.78 C642.53,455.31 649.31,445.67 656.13,436.06 C657.57,434.06 658.48,431.5 660.22,429.81 C667.65,422.55 668.47,413.73 667.3,404.1 C667.171574,401.441788 667.784372,398.800181 669.07,396.47 C671.07,392.4 670.83,388.13 671.57,383.94 C673.01,375.68 664.97,374.22 662.68,368.87 C662.31,368 659.07,368.35 656.93,368.1 C656.62,370.32 656.36,372.1 656.09,373.97 L649.83,375.08 C649.47,373.08 649.13,371.26 648.68,368.83 L645.54,374.08 C645.26,370.43 645.09,368.08 644.91,365.81 L636.52,364.27 C636.52,363.09 636.38,362.64 636.52,362.46 C645.52,352.91 654.52,343.46 663.39,333.81 C667.73,329.06 671.39,323.72 675.77,318.97 C681.2,313.05 693.55,311.57 697.77,314.57 L715.69,314.57 L718.06,310.19 L736,313.84 L730,317.48 L730.33,319.08 L752.68,315.62 C752.68,315.31 752.77,314.84 752.61,314.71 C751.12,313.47 748.11,311.83 748.31,311.18 C749.327018,307.790151 750.876344,304.583485 752.9,301.68 C755.58,297.95 759.69,295.09 761.78,291.11 C764.67,285.63 769.57,284.8 774.52,283.67 C775.73,283.4 777.22,284.57 778.63,284.85 C780.208611,285.067984 781.797366,285.20483 783.39,285.26 C782.11,289.08 779.27,293.75 784.27,297.66 C789.65,295.15 791.82,286.55 800.06,286.28 C798.28,282.16 799.7,278.19 803.33,275.37 C805.49,273.69 808.55,272.78 810.76,276.49 C803.52,280.05 805.76,287.94 802.93,293.56 C802.45,294.5 802.49,296.12 801.81,296.46 C789.39,302.7 783.04,314.68 774.61,324.71 C771.98,327.84 768.26,330.06 765.69,332.17 C763.45,335.67 761.44,338.77 759.49,341.9 C758.65,343.25 757.28,344.66 757.25,346.07 C757.04,354.34 756.45,362.68 757.35,370.85 C758.41,380.56 760.85,390.11 762.83,400.45 C767.4,396.14 772.17,392.92 772.27,386.53 C772.37,380.79 776.86,380.02 781.17,378.61 C780.93,374.32 780.58,369.85 785.17,367.29 C786.20511,366.562227 787.410782,366.114406 788.67,365.99 C793.12,366.15 794.15,363.99 792.51,360.37 C789.59,353.95 794.16,350.27 797.32,345.31 C797.69,347.42 797.94,348.84 798.2,350.26 L800.1,350.21 C799.98,348.21 800.67,345.33 799.6,344.27 C796.66,341.38 797.65,338.71 798.6,335.64 C798.935128,334.048538 799.102709,332.426362 799.1,330.8 L793.73,331.07 C792.36,325.96 796.41,322.41 798.23,318.21 C799.18,316.02 800.67,314.02 801.35,311.77 C802.82,306.88 805.87,305.41 808.68,305.77 L815.92,299.67 L817.92,301.13 C818.08,302.97 818.23,304.82 818.28,305.41 C821.87,303.41 825.77,299.52 829.78,299.41 C833.79,299.3 838.08,302.86 841.69,304.56 C843.82,302.56 846.58,300.07 849.28,297.56 C851.17,295.76 852.8,293.64 854.86,292.1 C862.28,286.56 869.57,280.78 878.22,277.2 C885.22,274.29 885.22,274.37 892.98,277.37 C897.88,274.48 894.35,270.27 894.32,266.79 C894.32,263.79 892.78,260.79 891.46,257.95 C890.33,255.56 890.01,252.43 886.23,251.81 C885.15,251.63 884.51,248.81 883.67,247.19 L884.67,246.02 L891.82,247.86 C894.05,245.86 897.15,243.33 899.82,240.46 C902.49,237.59 904.19,234.66 900.82,230.98 C900.09,230.18 899.95,227.64 900.6,227.04 C901.7,226.04 903.6,225.9 905.22,225.42 C906.05,225.16 906.9,224.94 906.65,225.01 C906.87,228.14 907.11,231.4 907.36,235.01 C911.36,234.71 914.36,234.45 917.28,234.27 C921.02,234.05 923.23,235.27 923.18,239.61 C923.18,243.27 925,245.01 929.06,245.98 C932.89,246.9 936.13,250.24 939.9,252.7 C940.54,250.76 944.3,250.03 941.28,247.23 C941.18,247.14 941.2,246.9 941.23,246.74 C941.36,245.99 941.34,244.74 941.7,244.58 C946.18,243.08 943.07,234.26 950.7,235.87 C950.47,234.38 950.3,233.17 950.02,231.34 L953.31,232.98 L958,227.36 C955.82,224.63 953.1,221.72 951,218.44 C947.82,213.57 943.4,214.19 939,214.53 L936.2,212.39 C935.08,214.51 933.96,216.63 932.66,219.11 C926.3,216.26 932.23,205.98 924.41,202.61 C924.5,203.99 924.56,204.83 924.71,207.13 C921.71,203.43 919.56,200.65 917.28,197.97 C916.274753,196.886867 915.177292,195.89313 914,195 C911.3,192.69 908.55,190.45 905.87,188.12 C905.27,187.6 905.04,186.62 904.41,186.2 C897.57,181.54 890.62,177.04 883.83,172.31 C878.83,168.81 873.39,168.1 867.37,168.01 C860.99,167.92 854.64,166.24 848.25,165.43 C846.548163,165.384127 844.846073,165.511449 843.17,165.81 C844.09,168.23 840.53,170.28 843.28,173.25 C847.88,178.25 846.79,181.03 839.6,185.89 C832.96,182.66 828.8,177.5 828.35,168.69 C820.77,176.57 814.35,173.51 807.2,170.96 C803.4,169.59 798.42,171.22 794.05,171.96 C792.61,172.21 791.4,173.87 790.37,174.66 L779.96,168.57 C780.21,167.42 780.43,166.15 780.77,164.91 C781.92192,161.18751 781.249464,157.139709 778.955811,153.989628 C776.662159,150.839547 773.016366,148.956706 769.12,148.91 C759.34,148.77 749.51,147.56 739.91,150.97 C738.31,151.54 736.05,150.25 733.5,149.69 L736.84,143.53 C733.91,142.45 731.26,141.45 728.6,140.53 C727.968691,140.409154 727.34953,140.231772 726.75,140 C723.91,138.28 721.11,136.5 717.64,134.32 L722.4,130.81 C722.4,127.34 720.4,125.26 716.33,124.33 C702.2,121.11 688.16,117.56 674.07,114.18 C672.7,113.85 671.26,113.83 670.91,114.84 C669.52,117.75 668.73,121.21 666.62,123.43 C662.36,127.93 662.01,132.88 662.96,137.68 C660.217332,139.74606 657.355743,141.649334 654.39,143.38 C652.801674,144.134843 650.979512,144.231881 649.32,143.65 C646.6,142.47 644.21,140.55 641.67,138.96 C636.14,135.47 635.54,135.64 633.11,141.32 C625.11,142.63 624.78,135.32 620.74,129.91 C618.28,138.03 616.1,145.23 613.94,152.4 C611.13,150.68 608.78,149.47 606.72,147.89 C605.384084,146.751318 604.245425,145.399795 603.35,143.89 C601.68,141.29 599.76,138.71 598.81,135.84 C598.21,134.03 598.47,131.12 599.6,129.7 C602.24,126.38 603.45,123.34 601.37,119.31 C600.945193,118.059541 600.882791,116.714418 601.19,115.43 C602.11,108.61 596.95,101.14 590.26,99.76 C590.1,99.76 589.91,99.59 589.78,99.64 C581.47,102.9 576.58,95.3 569.78,93.46 C564.61,95.92 564.43,100.07 565.92,105.07 C566.25,106.19 565.36,108.63 564.43,109.07 C555.64,112.72 547.08,110.78 538.96,106.9 C537.7,106.3 537.79,102.9 536.96,99.74 C528.77,97.81 519.21,93.05 509.24,100.41 L512.24,103.83 L507.44,105.83 C506.76,100.99 506.1,96.37 505.44,91.75 C503.37,97.84 498.89,96.01 496.79,93.9 C494.12,91.22 490.62,91.67 487.19,88.73 L484.4,96.5 L485.81,97.2 L490.37,94.39 L491.58,94.78 C491.24,95.85 491.19,97.6 490.52,97.88 C482.65,101.25 476.42,108.96 467.46,106.98 L463.23,112.13 L461.96,111.13 C464.47,107.26 466.96,103.34 469.55,99.55 C470.11,98.75 471.5,97.84 472.31,98 C476.26,98.76 477.96,96.3 479.73,93.54 C481.88281,89.973721 484.281976,86.5620933 486.91,83.33 C489.09,80.79 492.14,79.02 494.53,76.64 C499.37,71.81 504.23,66.98 508.59,61.74 C509.59,60.48 508.74,57.62 508.74,56.29 L502.84,51.15 L503.6,50.26 L507.21,53.26 C513.15,48.14 506.27,44.43 506.54,40.01 L505.16,40.85 C504.27,40.01 502.72,39.27 502.6,38.34 C501.98,33.66 494.97,26.34 490.44,26.04 C488.102035,26.0631514 485.764716,25.9496245 483.44,25.7 C478.67,24.84 475.32,25.87 472.88,30.6 C472.03,32.26 468.63,32.6 466.39,33.55 L465.46,32.22 C467.05,30.05 468.78,27.98 470.19,25.71 C472.96,21.25 472.1,19.71 467.07,18.83 C465.07,18.49 463.07,17.56 460.07,16.56 L457.48,18 L456.48,16.83 C458.08,15.53 459.79,14.35 461.25,12.92 C464.91,9.31 464.19,5.68 459.5,3.2 C457.63,2.2 455.83,1.08 454,0.02 L959.93,0.02 L959.93,482 L123,482 Z" ></path>
                <path d="M451,0 C442.46,4.61 438.67,12.93 434.74,21.07 C434.255131,22.4064974 434.287231,23.875951 434.83,25.19 C436.19,28.57 435.6,30.52 431.69,30.99 C428.75,31.34 425.84,31.9 421.96,32.52 C423.75,34.42 425.4,35.61 426.25,37.23 C427,38.68 426.86,40.59 427.35,43.86 L419.83,37.31 C418.33342,39.5828189 416.696927,41.7603558 414.93,43.83 C413.14,45.72 411.17,47.91 408.07,45.31 C407.33,44.69 405.62,45.22 404.31,45.22 C404.45,44.34 404.68,42.95 405.09,40.4 L386.69,42.93 L386.53,44 L390.53,46.32 C389.315656,47.2106203 388.023804,47.9904172 386.67,48.65 C382.32,50.32 378,52 373.49,53.3 C367.88,54.92 363.19,57.5 359.78,62.5 C358.68,64.12 356.2,64.79 354.69,65.69 C353.35,68.57 351.97,71.5 350.5,74.69 L346,71.88 L344.77,73 L348.91,78.1 L345.91,81.58 C348.44,83.72 353.13,84.82 350.04,89.48 C349.110197,90.9449678 347.693948,92.0354801 346.04,92.56 C337.56,94.29 329.04,95.68 320.48,97.2 C314.3,98.3 311.81,104.63 315.24,109.9 C316.063454,111.385626 316.392678,113.094791 316.18,114.78 C315.75,118.7 316.95,121.03 320.52,123.27 C324.68,125.88 328.15,129.71 331.52,133.34 C332.42,134.34 332.1,136.51 332.12,138.14 C332.19,142.53 331.29,147.14 332.35,151.25 C333.65,156.32 332.12,159.97 328.87,163.58 C325.2,162.77 324.19,160.11 324.87,156.28 C325.090991,154.62225 325.121188,152.944629 324.96,151.28 C324.75,147.65 324.02,144.08 328.17,141.68 C329.41,140.97 329.66,138.54 330.3,137.04 C329.82,136.51 329.59,136.04 329.41,136.04 C321.82,136.76 317.96,130.99 312.89,126.99 C306.57,121.99 303.4,122.4 295.89,127.45 L299.25,130.57 C297.25,132.25 295.25,133.87 293.09,135.66 L289.55,130.93 L287.98,131.37 C288.51,133.46 288.4,136.18 289.71,137.5 C292.13,139.93 295.37,141.55 298.28,143.5 L299.28,142.29 L301.7,149 L283.15,141.56 C283.73,140.27 284.63,139.24 284.4,138.63 C282.24,132.8 284.74,127.02 284.4,121.26 C284.24,118.51 283.1,115.83 282.4,113.11 L280.54,113.42 C280.520126,115.350188 280.64716,117.27909 280.92,119.19 C281.72,122.98 281.09,126 277.5,128.1 C276.08602,128.990851 274.795007,130.063333 273.66,131.29 C270.66,134.34 268.91,137.69 271.61,141.9 C272.23,142.9 272.47,144.1 273.14,145.04 C277.28,150.85 276.85,156.7 274.91,163.38 C273.57,167.98 274.11,173.49 275.27,178.23 C275.63,179.68 281.65,181.48 283.71,180.43 C289.41,177.53 292.46,181.68 295.44,184.21 C297.79,186.21 298.44,190.21 299.73,193.41 C299.85,193.71 299.39,194.3 299.13,194.71 C295.13,200.98 295.28,201.41 301.99,204.53 C297.49,206.11 294.4,204.91 295.1,201.39 C296.48,194.47 294.04,188.95 290.1,183.33 C287.81,183.98 285.27,184.67 282.76,185.44 C278.03,186.89 276.26,190.03 278.38,194.5 C280.67,199.33 280.44,203.27 276.63,207.2 C275.21,208.67 274.73,211.02 273.68,212.88 C272.906614,214.313579 271.974057,215.655388 270.9,216.88 C268.71,219.26 266.36,221.49 263.16,224.7 C254.62,224.92 253.03,224.09 252.4,218.35 L263,214.87 L261.77,211.68 C264.77,211.14 269.94,204.3 270.22,200.49 C270.34,198.84 270.08,196.92 270.83,195.62 C273.41,191.16 272.03,187.74 268.72,184.52 C268.02,183.84 267.08,182.9 267.09,182.1 C267.21,174.42 267.27,166.73 267.81,159.1 C268.24,152.94 269.3,146.95 264.87,141.51 C263.75,140.13 263.53,137.27 264.06,135.44 C265.64,130.08 268.75,125.19 267.5,119.12 C267,116.66 266.5,115.29 263.77,114.86 C259.797517,114.206867 255.867279,113.31864 252,112.2 C249.11,111.38 247.59,112.3 246.91,115.11 C245.98,118.98 244.65,122.79 244.11,126.72 C243.620419,131.190096 241.523733,135.330162 238.21,138.37 C235.43,140.96 231.14,143.31 233.88,148.56 C234.19,149.16 233,150.56 232.45,151.66 L237.25,153.86 C236.19,158.04 234.91,162.16 234.16,166.38 C233.64,169.32 232.71,172.78 237.77,173.38 C239.07,173.53 240.36,175.62 241.26,177.07 C242.86,179.66 244.16,182.43 246.21,186.29 L242,195.55 C237.18,185.47 228.69,180.36 220.31,175.55 C214.66,172.32 208.01,170.66 201.63,168.97 C197.99,167.97 195.18,172.15 196.97,175.47 C199.39,179.97 200.45,183.81 194.55,186.47 C193.67,186.87 193.67,188.97 192.99,190.13 C192.273674,191.113181 191.463171,192.024159 190.57,192.85 C190.039463,191.80691 189.601128,190.719437 189.26,189.6 C188.74,187.3 188.41,184.95 187.82,181.6 C185.52,183.39 184.2,184.1 183.31,185.17 C179.92,189.23 175.72,190.98 170.54,189.73 C165.36,188.48 164.87,193.33 162.35,195.6 C158.72,194.91 157.63,192.6 157.64,189.15 C157.64,187.45 156.9,185.76 156.49,184.06 L152.65,188 C148.84,185.68 149.4,189 149.49,190.45 C146.39,191.45 143.65,191.76 141.49,193.05 C136.425138,195.941427 131.563811,199.175629 126.94,202.73 C124.65,204.54 123.12,207.41 121.55,209.99 C119.87,212.76 118.55,215.74 116.93,218.91 C102.45,206.37 102.4,205.82 114.3,200.76 C113.12,191.76 111.66,190.76 95.66,188.16 C102.02,193.71 100.17,200.01 99.11,206.25 C98.9,207.47 98.81,209.37 99.5,209.97 C103.41,213.33 101.95,217.07 100.89,220.97 C100.28,223.18 100.09,225.5 99.67,227.97 L90.9,221.15 C85.73,225.43 80.97,228.95 76.81,233.08 C75.64,234.24 75.62,237.35 76.18,239.24 C77.18,242.54 79,245.59 80.81,249.47 L65.97,245.79 L57.62,239.44 C57,242.36 55.71,244.72 56.41,245.93 C57.77,248.29 60.24,250.01 62.26,251.99 L63.68,250.83 C64.25,252.83 64.83,254.91 65.54,257.45 C56.15,262.29 52.75,250.98 46.27,250.45 C45.44,246.99 44.59,243.8 43.93,240.57 C43.6408217,239.417948 43.6859158,238.207346 44.06,237.08 C45.71,233.24 45.92,229.83 42.39,226.84 C37.56,222.76 32.85,218.56 27.39,213.84 C29.84,212.49 30.59,211.84 30.85,211.98 C35.03,214.45 39.13,217.06 43.29,219.57 C44.485915,220.371747 45.7886832,221.00125 47.16,221.44 C52.94,223 58.77,224.44 64.58,225.86 C72.11,227.74 81.26,222.43 83.36,214.98 C84.79,209.92 79.8,198.41 74.36,196.84 C66.6,194.61 61.64,189.15 56.48,183.84 C53.23,180.51 49.81,178.19 45.13,179.09 C38.69,180.33 34.68,175.55 29.67,173.25 C29.28,173.07 29.35,171.88 29.17,171.03 L34.75,171.73 L35.13,170.25 L29.19,167.25 L29.34,168.51 C27.4435137,168.989674 25.5769445,169.580699 23.75,170.28 C21.7246028,171.070152 19.8377158,172.177306 18.16,173.56 C16.26,175.31 15.01,177.75 13.16,179.63 C7.68,185.31 7.46,189.77 12.62,195.58 C16.96,200.47 17.18,204.08 14.62,210.37 C13.6664469,212.902697 13.4718428,215.65843 14.06,218.3 C15.63,224.97 18.72,231.1 16.28,238.58 C15.28,241.78 18,246.21 19,250.09 C19.39,251.6 20.38,253.42 19.9,254.62 C18.23,258.75 19.9,261.77 22.53,264.49 C26.4,268.44 26.23,272.35 22.88,276.44 L5.37,297.89 L8.37,298.07 C6.66,305.72 15.9,301.5 17.18,305.74 C14.31,306.74 11.56,307.54 8.93,308.64 C8.14,308.96 7.11,310.11 7.16,310.8 C7.51,316 3.8,317.52 0,319 L0,0 L451,0 Z" id="Shape" ></path>
                <path d="M0,321 C4.53,325.85 2.39,332.57 4.7,337.92 C6.64,342.38 4.89,349.19 12.76,350.55 C14.76,350.89 16.97,351.9 19.36,352.27 C23.5,352.92 23.62,356.78 23.58,360.09 C23.51,364.9 26.87,370.45 31.15,372.52 C32.35,373.1 33.21,374.38 35.47,376.52 L26,378.88 L28.44,388.59 C31.8,387.93 34.73,386.93 37.67,386.9 C41.26,386.9 43.37,388.9 42.67,392.84 C42.520438,393.447598 42.520438,394.082402 42.67,394.69 C43.97,398.1 49.41,396.76 49.99,402.24 C50.38,406.01 55.72,405.89 59.56,404.81 C60.12,404.65 61.14,404.69 61.39,405.04 C64.28,409.12 69.06,408.9 73.1,410.37 C76.48,411.61 78.29,413.1 76.2,417.37 C74.8,420.27 75.39,424.13 75.07,427.85 C70.67,427.77 66.3,427.58 66.01,433.95 L71.2,433.95 L71.37,434.76 L63,439.06 L66.27,442.63 L57,451 C58.34,452 60.08,453.52 62,454.82 C63.49,455.82 65.5,456.31 66.68,457.58 C73.33,464.77 82.39,464.98 91.08,466.33 C91.57,466.4 92.21,466.25 92.55,466.5 C96.7,469.68 101.82,469.5 106.36,470.88 C111.27,472.4 114.9,478.1 119.08,481.98 L0,481.98 L0,321 Z" id="Shape"></path>
            </g>
            <text id="Грузовоз" opacity="0.949999988" font-family="Helvetica-Bold, Helvetica" font-size="45" font-weight="bold" fill="#FFFFFF">
                <tspan x="522.275425" y="370.787174">Грузовоз</tspan>
            </text>
            <text id="Мы-знаем-русские-дор" font-family="Helvetica" font-size="16" font-weight="normal" fill="#FFFFFF">
                <tspan x="526.530623" y="415.298517">Мы знаем русские дороги</tspan>
            </text>
            <polyline id="Line" stroke="#FFFFFF" stroke-width="3" stroke-linecap="square" points="439 321.329521 478.535663 392.301018 488.981851 342.212726 511.339224 390.404849 732.532989 390.404849"></polyline>
        </g>
    </g>
</svg>